<?xml version="1.0"?>
<svg xmlns:rdf="http://www.w3.org/1999/02/22-rdf-syntax-ns#" xmlns="http://www.w3.org/2000/svg" xmlns:cc="http://creativecommons.org/ns#" xmlns:xlink="http://www.w3.org/1999/xlink" xmlns:dc="http://purl.org/dc/elements/1.1/" id="svg6018" viewBox="0 0 598.03 598.03" version="1.1">
 <g id="layer1" transform="translate(-57.75 -335.44)">
  <path id="rect3646" stroke="#000" stroke-width="13.229" fill="none" d="m157.78 400.66c-18.519 0-33.438 14.887-33.438 33.406v398.38c0 18.519 14.919 33.406 33.438 33.406h398.34c18.519 0 33.438-14.887 33.438-33.406v-398.38c0-18.519-14.919-33.406-33.438-33.406h-398.34z"/>
  <path id="path4653" d="m163.28 593.09c-13.712 0-12.91 19.461-0.22471 19.461h40.087c12.685 0 13.487-19.461-0.22474-19.461h-39.637z"/>
  <path id="path4655" d="m195.21 597.27c-7.879 11.222 8.509 21.748 15.798 11.366 5.3916-7.6792 12.067-17.186 18.038-25.691 12.882-19.015 17.252-22.07 8.5326-27.203-4.3694-2.2796-8.194-7.147-19.592 9.0878-6.8783 9.7967-15.898 22.643-22.776 32.44z"/>
  <path id="path4657" d="m234.62 552.78c-9.2157 0-11.989 8.0025-11.989 11.686v22.324l0.13785 166.8c0 16.687 24.529 16.558 24.529-0.3583l0.0551-97.041h4.6577l0.0551 97.041c0 16.917 24.529 17.045 24.529 0.3583l0.13779-166.8v-22.324c0-3.6832-2.7732-11.686-11.989-11.686h-5.7602c-0.13997 0.99996-3.2797 3.9136-3.2797 3.9136l-1.5434 32.257-1.9843-28.398 1.378-3.638c-1.1836-1.024-2.8455-2.4852-3.886-3.3624-1.0849 0.87817-2.6508 2.3175-3.8585 3.3624l1.378 3.638-1.9843 28.398-1.5434-32.257s-3.1397-2.9136-3.2797-3.9136z"/>
  <path id="path4999" d="m314.1 639.54c3.3468 13.297-15.721 17.27-18.817 4.9679-2.9583-11.753-6.8261-27.121-9.7843-38.874-3.0963-12.302 15.581-17.829 18.927-4.532 2.9216 11.608 6.7529 26.83 9.6746 38.439z"/>
  <path id="path5001" d="m303.21 597.27c7.879 11.222-8.509 21.748-15.798 11.366-5.3916-7.6792-12.067-17.186-18.038-25.691-12.882-19.015-17.252-22.07-8.5326-27.203 4.3693-2.2796 8.194-7.147 19.592 9.0878 6.8783 9.7967 15.898 22.643 22.776 32.44z"/>
  <path id="path2948" d="m296.17 641.44c-3.9447 0-6.1735 1.9791-6.1735 5.6775v9.8667h-13.505v72.043h57.409v-72.043h-13.505v-9.8667c0-3.6984-2.2287-5.6775-6.1736-5.6775h-18.052zm-0.11018 5.7877h18.273v9.7564h-18.273zm-33.707 9.7564c-6.2327 0-9.9494 5.2221-9.9494 9.9494v52.2c0 4.7273 3.3741 9.8943 9.9494 9.8943h9.2053v-72.043zm76.481 0v72.043h9.2054c6.5752 0 9.9493-5.167 9.9493-9.8943v-52.2c0-4.7273-3.7166-9.9494-9.9493-9.9494z"/>
  <path id="path5112" d="m435.07 552.78c-9.2157 0-11.989 8.0025-11.989 11.686v1.1208l-0.0471 61.605-14.136 53.75h14.136l0.18497 72.645c0 16.687 24.529 16.558 24.529-0.3583l0.0551-72.287h4.6578l0.0551 72.287c0 16.917 24.529 17.045 24.529 0.3583l0.0766-72.645h14.554l-14.076-53.75-0.41731-61.293v-1.4326c0-3.6832-2.7731-11.686-11.989-11.686h-5.7602c-0.14 0.99996-3.2797 3.9136-3.2797 3.9136l-1.5434 32.257-1.9844-28.398 1.378-3.638c-1.1836-1.024-2.8455-2.4852-3.886-3.3624-1.0849 0.87817-2.6508 2.3175-3.8585 3.3624l1.3781 3.638-1.9844 28.398-1.5434-32.257s-3.1397-2.9136-3.2797-3.9136z"/>
  <path id="path5114" d="m363.48 593.09c-13.712 0-12.91 19.461-0.22471 19.461h40.087c12.685 0 13.487-19.461-0.2248-19.461h-39.637z"/>
  <path id="path5116" d="m395.41 597.27c-7.8789 11.222 8.509 21.748 15.798 11.366 5.3916-7.6792 12.067-17.186 18.038-25.691 12.882-19.015 17.252-22.07 8.5326-27.203-4.3694-2.2796-8.194-7.147-19.592 9.0878-6.8783 9.7967-15.898 22.643-22.776 32.44z"/>
  <path id="path5118" d="m514.3 639.54c3.3468 13.297-15.721 17.27-18.817 4.9679l-9.7843-38.874c-3.0962-12.302 15.58-17.829 18.927-4.532 2.9217 11.608 6.753 26.83 9.6746 38.439z"/>
  <path id="path5120" d="m503.41 597.27c7.879 11.222-8.509 21.748-15.798 11.366-5.3916-7.6792-12.067-17.186-18.038-25.691-12.882-19.015-17.252-22.07-8.5326-27.203 4.3694-2.2796 8.194-7.147 19.592 9.0878 6.8783 9.7967 15.898 22.643 22.776 32.44z"/>
  <path id="path5122" d="m236.81 500.5s-1.4246 4.6876 0.6875 8.4375c-5.8124 3.8729-9.6562 10.492-9.6562 18 0 11.934 9.6594 21.594 21.594 21.594 11.933 0 21.625-9.6593 21.625-21.594 0-11.913-9.6584-21.592-21.562-21.625-0.0201-0.002-0.0425 0.002-0.0625 0-12.174-1.488-12.625-4.8125-12.625-4.8125z"/>
  <path id="path5145" d="m356.16 526.92"/>
  <path id="path5141" d="m449.64 505.32c-11.934 0-21.608 9.674-21.608 21.608 0 0.57831 0.0378 1.1419 0.0827 1.7088-0.56013 13.998-4.2167 14.69-4.2167 14.69s5.8748 1.3931 9.536-2.1222c3.9594 4.4931 9.7458 7.3311 16.206 7.3311 6.4448 0 12.219-2.8274 16.178-7.3036 3.6616 3.5091 9.5636 2.0946 9.5636 2.0946s-3.6566-0.69143-4.2168-14.69c0.0445-0.56686 0.0826-1.1304 0.0826-1.7088 0-11.934-9.6749-21.608-21.608-21.608z"/>
  <path id="path5246" d="m496.81 641.44c-3.9447 0-6.1735 1.9791-6.1735 5.6775v9.8667h-13.505v72.043h57.409v-72.043h-13.505v-9.8667c0-3.6984-2.2287-5.6775-6.1735-5.6775h-18.052zm-0.11017 5.7877h18.273v9.7564h-18.273zm-33.707 9.7564c-6.2326 0-9.9494 5.2221-9.9494 9.9494v52.2c0 4.7273 3.3741 9.8943 9.9494 9.8943h9.2053v-72.043zm76.481 0v72.043h9.2054c6.5752 0 9.9493-5.167 9.9493-9.8943v-52.2c0-4.7273-3.7167-9.9494-9.9493-9.9494z"/>
 </g>
 <metadata>
  <rdf:RDF>
   <cc:Work>
    <dc:format>image/svg+xml</dc:format>
    <dc:type rdf:resource="http://purl.org/dc/dcmitype/StillImage"/>
    <cc:license rdf:resource="http://creativecommons.org/licenses/publicdomain/"/>
    <dc:publisher>
     <cc:Agent rdf:about="http://openclipart.org/">
      <dc:title>Openclipart</dc:title>
     </cc:Agent>
    </dc:publisher>
   </cc:Work>
   <cc:License rdf:about="http://creativecommons.org/licenses/publicdomain/">
    <cc:permits rdf:resource="http://creativecommons.org/ns#Reproduction"/>
    <cc:permits rdf:resource="http://creativecommons.org/ns#Distribution"/>
    <cc:permits rdf:resource="http://creativecommons.org/ns#DerivativeWorks"/>
   </cc:License>
  </rdf:RDF>
 </metadata>
</svg>
